<svg width="115" height="35" viewBox="0 0 115 35" fill="none" xmlns="http://www.w3.org/2000/svg">
    <path d="M26.496 2.432C26.3253 2.60266 26.176 2.70933 26.048 2.752C25.9627 2.752 25.8347 2.79467 25.664 2.88C25.4507 3.008 25.2373 3.09333 25.024 3.136C24.8107 3.17867 24.5973 3.22133 24.384 3.264C24.2133 3.30667 23.9787 3.41333 23.68 3.584C23.3813 3.75466 23.0827 3.86133 22.784 3.904C22.2293 3.98933 21.6107 4.07467 20.928 4.16C20.2453 4.24533 19.52 4.33066 18.752 4.416C19.648 6.848 20.4373 9.38667 21.12 12.032C21.8027 14.6773 22.2507 17.2373 22.464 19.712C22.72 22.1867 22.656 24.4907 22.272 26.624C21.9307 28.7147 21.1627 30.4427 19.968 31.808C18.5173 33.5147 16.512 34.496 13.952 34.752C12.8 34.88 11.52 34.816 10.112 34.56C8.74667 34.304 7.424 33.9413 6.144 33.472C4.864 33.0453 3.73333 32.5333 2.752 31.936C1.77067 31.3387 1.13067 30.7413 0.832 30.144C0.448 29.4187 0.426667 28.736 0.768 28.096C0.896 27.8827 0.981333 27.6907 1.024 27.52C1.06667 27.3067 1.216 27.1787 1.472 27.136C1.68533 27.0933 1.96267 27.136 2.304 27.264C2.688 27.3493 2.98667 27.4347 3.2 27.52L4.096 27.328C5.632 28.1813 7.27467 28.8427 9.024 29.312C10.7733 29.7387 12.4373 29.9093 14.016 29.824C14.6987 29.7813 15.36 29.632 16 29.376C16.64 29.12 17.1733 28.6293 17.6 27.904C18.0267 27.008 18.3893 25.664 18.688 23.872C18.9867 22.0373 19.1573 20.032 19.2 17.856C19.2427 15.68 19.136 13.4187 18.88 11.072C18.624 8.72533 18.176 6.54933 17.536 4.544C16.2133 4.62933 14.912 4.71467 13.632 4.8C12.3947 4.84267 11.392 4.82133 10.624 4.736C9.984 4.65066 9.36533 4.544 8.768 4.416C8.17067 4.24533 7.552 3.94666 6.912 3.52C6.69867 3.81867 6.50667 4.07467 6.336 4.288C6.16533 4.50133 5.99467 4.608 5.824 4.608C5.39733 4.39466 5.056 4.05333 4.8 3.584C4.58667 3.072 4.37333 2.688 4.16 2.432C4.032 2.304 3.98933 2.112 4.032 1.856C4.07467 1.55733 4.30933 1.38667 4.736 1.344C5.12 1.216 5.99467 1.04533 7.36 0.831999C8.72533 0.618666 10.2827 0.447999 12.032 0.319998C13.824 0.191998 15.6587 0.149332 17.536 0.191999C19.456 0.234666 21.184 0.447999 22.72 0.831999C24.128 1.17333 25.3867 1.70667 26.496 2.432ZM45.676 13.12C46.2307 14.4853 46.7427 15.9573 47.212 17.536C47.724 19.1147 48.0653 20.6933 48.236 22.272C48.4493 23.808 48.4493 25.3013 48.236 26.752C48.0653 28.2027 47.5747 29.4613 46.764 30.528C46.4227 30.9547 46.0173 31.1253 45.548 31.04C45.3773 30.9973 45.228 30.8907 45.1 30.72C44.972 30.5493 44.8013 30.4 44.588 30.272C44.4173 30.144 44.2253 30.0373 44.012 29.952C43.8413 29.8667 43.6707 29.696 43.5 29.44C42.86 29.6533 42.22 29.9733 41.58 30.4C40.9827 30.784 40.364 31.1893 39.724 31.616C39.084 32.0427 38.4227 32.448 37.74 32.832C37.0573 33.2587 36.3533 33.5573 35.628 33.728C34.86 33.9413 34.284 33.8987 33.9 33.6C33.5587 33.344 33.1747 33.0453 32.748 32.704C32.4493 32.448 32.2573 32.2773 32.172 32.192C32.0867 32.1493 32.0013 31.8933 31.916 31.424C31.788 30.4853 31.7667 29.4827 31.852 28.416C31.98 27.3067 32.236 26.1973 32.62 25.088C33.6867 21.8453 35.8627 19.6693 39.148 18.56C39.532 18.432 39.916 18.4107 40.3 18.496C40.7267 18.5387 41.132 18.6453 41.516 18.816C41.9 18.9867 42.2627 19.2 42.604 19.456C42.988 19.712 43.3293 19.968 43.628 20.224L44.652 21.056C44.8653 20.3307 44.844 19.5627 44.588 18.752C44.3747 17.8987 44.0333 17.1093 43.564 16.384C43.0947 15.616 42.5613 14.9333 41.964 14.336C41.3667 13.7387 40.7907 13.3333 40.236 13.12C38.06 13.12 36.0973 13.632 34.348 14.656C32.6413 15.6373 30.9773 16.9387 29.356 18.56C29.2707 18.6453 29.164 18.7093 29.036 18.752C28.9507 18.7947 28.8653 18.8373 28.78 18.88C28.652 18.9653 28.5027 18.9867 28.332 18.944C28.204 18.9013 28.1827 18.7733 28.268 18.56C28.524 17.1947 29.036 15.9787 29.804 14.912C30.572 13.8027 31.468 12.8427 32.492 12.032C33.516 11.2213 34.604 10.5387 35.756 9.984C36.908 9.42933 38.0387 9.024 39.148 8.768C39.3187 8.68267 39.468 8.64 39.596 8.64C39.7667 8.59733 39.9587 8.576 40.172 8.576C40.4707 8.576 40.748 8.66133 41.004 8.832C41.26 9.00267 41.5587 9.19467 41.9 9.408C42.3267 9.62133 42.7533 9.87733 43.18 10.176C43.6067 10.432 43.9907 10.752 44.332 11.136C44.6307 11.4773 44.8867 11.8187 45.1 12.16C45.3133 12.5013 45.5053 12.8213 45.676 13.12ZM43.5 24.512C43.244 23.9573 42.8387 23.4453 42.284 22.976C41.772 22.5067 41.1747 22.1653 40.492 21.952C39.8093 21.696 39.0627 21.632 38.252 21.76C37.484 21.888 36.6947 22.272 35.884 22.912C35.628 23.4667 35.372 24.0853 35.116 24.768C34.86 25.408 34.668 26.0693 34.54 26.752C34.412 27.392 34.348 28.0533 34.348 28.736C34.3907 29.376 34.54 29.9733 34.796 30.528C36.4173 29.9733 37.996 29.3333 39.532 28.608C41.068 27.8827 42.3907 27.2427 43.5 26.688C43.756 26.432 43.9053 26.2187 43.948 26.048C43.9907 25.8773 43.9693 25.728 43.884 25.6C43.8413 25.472 43.756 25.3227 43.628 25.152C43.5427 24.9813 43.5 24.768 43.5 24.512ZM67.2025 12.288C67.5012 12.5867 67.7785 12.928 68.0345 13.312C68.2905 13.6533 68.5038 14.016 68.6745 14.4C69.0158 15.2107 69.1865 16.0213 69.1865 16.832C69.2292 17.6 68.9305 18.5387 68.2905 19.648C67.5652 20.8427 66.6265 21.8453 65.4745 22.656C64.3652 23.4667 63.1492 23.9787 61.8265 24.192C60.8878 24.3627 59.9492 24.3627 59.0105 24.192C58.0718 23.9787 57.1758 23.552 56.3225 22.912C56.0665 23.1253 55.8532 23.4453 55.6825 23.872C55.5545 24.256 55.5118 24.6187 55.5545 24.96C55.6398 25.5573 55.8532 26.2187 56.1945 26.944C56.5785 27.6267 56.9838 28.096 57.4105 28.352C58.1358 28.6507 59.1385 28.672 60.4185 28.416C61.7412 28.16 63.1278 27.776 64.5785 27.264C66.0718 26.7093 67.5225 26.112 68.9305 25.472C70.3812 24.7893 71.6185 24.2133 72.6425 23.744C72.6425 24 72.5785 24.1707 72.4505 24.256C72.3652 24.3413 72.2372 24.4907 72.0665 24.704C71.8532 24.9173 71.6185 25.1733 71.3625 25.472C71.1065 25.7707 70.8078 26.0267 70.4665 26.24C70.0398 26.496 69.7198 26.8373 69.5065 27.264C69.2932 27.648 68.8878 28.0107 68.2905 28.352C67.4798 28.7787 66.6478 29.2267 65.7945 29.696C64.9838 30.1227 64.1732 30.528 63.3625 30.912C62.5518 31.2533 61.7198 31.5307 60.8665 31.744C60.0558 31.9147 59.2452 31.9573 58.4345 31.872C57.8798 31.7867 57.4105 31.6373 57.0265 31.424C56.6852 31.2107 56.2585 30.8907 55.7465 30.464C55.4905 30.2507 55.1918 30.0373 54.8505 29.824C54.5092 29.6107 54.2532 29.3973 54.0825 29.184C53.3572 28.1173 52.8665 26.9867 52.6105 25.792C52.3545 24.5547 52.2905 23.3387 52.4185 22.144C52.5892 20.9067 52.9092 19.712 53.3785 18.56C53.8478 17.3653 54.4665 16.2773 55.2345 15.296C55.6612 14.7413 56.1732 14.1867 56.7705 13.632C57.4105 13.0347 58.0932 12.5227 58.8185 12.096C59.5865 11.6267 60.3758 11.264 61.1865 11.008C62.0398 10.752 62.8932 10.6453 63.7465 10.688C64.0878 10.7307 64.3865 10.8373 64.6425 11.008C64.9412 11.136 65.2612 11.2853 65.6025 11.456C65.8158 11.5413 66.0718 11.6693 66.3705 11.84C66.7118 11.968 66.9892 12.1173 67.2025 12.288ZM65.3465 16.064C65.2612 15.68 65.0265 15.3387 64.6425 15.04C64.2585 14.7413 63.8318 14.5067 63.3625 14.336C62.8932 14.1227 62.4238 13.9947 61.9545 13.952C61.4852 13.9093 61.1438 13.9307 60.9305 14.016C60.5892 14.144 60.1838 14.3787 59.7145 14.72C59.2878 15.0187 58.8612 15.3813 58.4345 15.808C58.0505 16.2347 57.6665 16.704 57.2825 17.216C56.9412 17.6853 56.6852 18.1333 56.5145 18.56C56.4292 18.688 56.3438 18.9013 56.2585 19.2C56.2158 19.456 56.2372 19.648 56.3225 19.776C56.8345 20.416 57.6025 20.736 58.6265 20.736C59.6078 20.736 60.6532 20.5013 61.7625 20.032C62.9145 19.5627 63.7252 19.072 64.1945 18.56C64.2372 18.4747 64.3225 18.3253 64.4505 18.112C64.6212 17.8987 64.7705 17.664 64.8985 17.408C65.0265 17.152 65.1332 16.896 65.2185 16.64C65.3465 16.384 65.3892 16.192 65.3465 16.064ZM88.3275 12.288C88.6262 12.5867 88.9035 12.928 89.1595 13.312C89.4155 13.6533 89.6288 14.016 89.7995 14.4C90.1408 15.2107 90.3115 16.0213 90.3115 16.832C90.3542 17.6 90.0555 18.5387 89.4155 19.648C88.6902 20.8427 87.7515 21.8453 86.5995 22.656C85.4902 23.4667 84.2742 23.9787 82.9515 24.192C82.0128 24.3627 81.0742 24.3627 80.1355 24.192C79.1968 23.9787 78.3008 23.552 77.4475 22.912C77.1915 23.1253 76.9782 23.4453 76.8075 23.872C76.6795 24.256 76.6368 24.6187 76.6795 24.96C76.7648 25.5573 76.9782 26.2187 77.3195 26.944C77.7035 27.6267 78.1088 28.096 78.5355 28.352C79.2608 28.6507 80.2635 28.672 81.5435 28.416C82.8662 28.16 84.2528 27.776 85.7035 27.264C87.1968 26.7093 88.6475 26.112 90.0555 25.472C91.5062 24.7893 92.7435 24.2133 93.7675 23.744C93.7675 24 93.7035 24.1707 93.5755 24.256C93.4902 24.3413 93.3622 24.4907 93.1915 24.704C92.9782 24.9173 92.7435 25.1733 92.4875 25.472C92.2315 25.7707 91.9328 26.0267 91.5915 26.24C91.1648 26.496 90.8448 26.8373 90.6315 27.264C90.4182 27.648 90.0128 28.0107 89.4155 28.352C88.6048 28.7787 87.7728 29.2267 86.9195 29.696C86.1088 30.1227 85.2982 30.528 84.4875 30.912C83.6768 31.2533 82.8448 31.5307 81.9915 31.744C81.1808 31.9147 80.3702 31.9573 79.5595 31.872C79.0048 31.7867 78.5355 31.6373 78.1515 31.424C77.8102 31.2107 77.3835 30.8907 76.8715 30.464C76.6155 30.2507 76.3168 30.0373 75.9755 29.824C75.6342 29.6107 75.3782 29.3973 75.2075 29.184C74.4822 28.1173 73.9915 26.9867 73.7355 25.792C73.4795 24.5547 73.4155 23.3387 73.5435 22.144C73.7142 20.9067 74.0342 19.712 74.5035 18.56C74.9728 17.3653 75.5915 16.2773 76.3595 15.296C76.7862 14.7413 77.2982 14.1867 77.8955 13.632C78.5355 13.0347 79.2182 12.5227 79.9435 12.096C80.7115 11.6267 81.5008 11.264 82.3115 11.008C83.1648 10.752 84.0182 10.6453 84.8715 10.688C85.2128 10.7307 85.5115 10.8373 85.7675 11.008C86.0662 11.136 86.3862 11.2853 86.7275 11.456C86.9408 11.5413 87.1968 11.6693 87.4955 11.84C87.8368 11.968 88.1142 12.1173 88.3275 12.288ZM86.4715 16.064C86.3862 15.68 86.1515 15.3387 85.7675 15.04C85.3835 14.7413 84.9568 14.5067 84.4875 14.336C84.0182 14.1227 83.5488 13.9947 83.0795 13.952C82.6102 13.9093 82.2688 13.9307 82.0555 14.016C81.7142 14.144 81.3088 14.3787 80.8395 14.72C80.4128 15.0187 79.9862 15.3813 79.5595 15.808C79.1755 16.2347 78.7915 16.704 78.4075 17.216C78.0662 17.6853 77.8102 18.1333 77.6395 18.56C77.5542 18.688 77.4688 18.9013 77.3835 19.2C77.3408 19.456 77.3622 19.648 77.4475 19.776C77.9595 20.416 78.7275 20.736 79.7515 20.736C80.7328 20.736 81.7782 20.5013 82.8875 20.032C84.0395 19.5627 84.8502 19.072 85.3195 18.56C85.3622 18.4747 85.4475 18.3253 85.5755 18.112C85.7462 17.8987 85.8955 17.664 86.0235 17.408C86.1515 17.152 86.2582 16.896 86.3435 16.64C86.4715 16.384 86.5142 16.192 86.4715 16.064ZM109.453 12.288C109.751 12.5867 110.029 12.928 110.285 13.312C110.541 13.6533 110.754 14.016 110.925 14.4C111.266 15.2107 111.437 16.0213 111.437 16.832C111.479 17.6 111.181 18.5387 110.541 19.648C109.815 20.8427 108.877 21.8453 107.725 22.656C106.615 23.4667 105.399 23.9787 104.077 24.192C103.138 24.3627 102.199 24.3627 101.26 24.192C100.322 23.9787 99.4258 23.552 98.5725 22.912C98.3165 23.1253 98.1032 23.4453 97.9325 23.872C97.8045 24.256 97.7618 24.6187 97.8045 24.96C97.8898 25.5573 98.1032 26.2187 98.4445 26.944C98.8285 27.6267 99.2338 28.096 99.6605 28.352C100.386 28.6507 101.389 28.672 102.669 28.416C103.991 28.16 105.378 27.776 106.829 27.264C108.322 26.7093 109.773 26.112 111.181 25.472C112.631 24.7893 113.869 24.2133 114.893 23.744C114.893 24 114.829 24.1707 114.701 24.256C114.615 24.3413 114.487 24.4907 114.317 24.704C114.103 24.9173 113.869 25.1733 113.613 25.472C113.357 25.7707 113.058 26.0267 112.717 26.24C112.29 26.496 111.97 26.8373 111.757 27.264C111.543 27.648 111.138 28.0107 110.541 28.352C109.73 28.7787 108.898 29.2267 108.045 29.696C107.234 30.1227 106.423 30.528 105.613 30.912C104.802 31.2533 103.97 31.5307 103.117 31.744C102.306 31.9147 101.495 31.9573 100.685 31.872C100.13 31.7867 99.6605 31.6373 99.2765 31.424C98.9352 31.2107 98.5085 30.8907 97.9965 30.464C97.7405 30.2507 97.4418 30.0373 97.1005 29.824C96.7592 29.6107 96.5032 29.3973 96.3325 29.184C95.6072 28.1173 95.1165 26.9867 94.8605 25.792C94.6045 24.5547 94.5405 23.3387 94.6685 22.144C94.8392 20.9067 95.1592 19.712 95.6285 18.56C96.0978 17.3653 96.7165 16.2773 97.4845 15.296C97.9112 14.7413 98.4232 14.1867 99.0205 13.632C99.6605 13.0347 100.343 12.5227 101.069 12.096C101.837 11.6267 102.626 11.264 103.437 11.008C104.29 10.752 105.143 10.6453 105.997 10.688C106.338 10.7307 106.637 10.8373 106.893 11.008C107.191 11.136 107.511 11.2853 107.853 11.456C108.066 11.5413 108.322 11.6693 108.621 11.84C108.962 11.968 109.239 12.1173 109.453 12.288ZM107.597 16.064C107.511 15.68 107.277 15.3387 106.893 15.04C106.509 14.7413 106.082 14.5067 105.613 14.336C105.143 14.1227 104.674 13.9947 104.205 13.952C103.735 13.9093 103.394 13.9307 103.181 14.016C102.839 14.144 102.434 14.3787 101.965 14.72C101.538 15.0187 101.111 15.3813 100.685 15.808C100.301 16.2347 99.9165 16.704 99.5325 17.216C99.1912 17.6853 98.9352 18.1333 98.7645 18.56C98.6792 18.688 98.5938 18.9013 98.5085 19.2C98.4658 19.456 98.4872 19.648 98.5725 19.776C99.0845 20.416 99.8525 20.736 100.877 20.736C101.858 20.736 102.903 20.5013 104.013 20.032C105.165 19.5627 105.975 19.072 106.445 18.56C106.487 18.4747 106.573 18.3253 106.701 18.112C106.871 17.8987 107.021 17.664 107.149 17.408C107.277 17.152 107.383 16.896 107.469 16.64C107.597 16.384 107.639 16.192 107.597 16.064Z" fill="#F0F2F5"/>
</svg>
